<svg 
  xmlns="http://www.w3.org/2000/svg" 
  version="1.1" 
  xmlns:xlink="http://www.w3.org/1999/xlink" 
  xmlns:svgjs="http://svgjs.com/svgjs" 
  width="1440" 
  height="560" 
  preserveAspectRatio="none" 
  viewBox="0 0 1440 560"
>
  <g mask="url(&quot;#SvgjsMask2010&quot;)" fill="none">
    <rect width="1440" height="560" x="0" y="0" fill="#87CEEB"></rect>
    
      <path d="M 0,528 C 57.6,467.2 172.8,231.2 288,224 C 403.2,216.8 460.8,507.6 576,492 C 691.2,476.4 748.8,180.4 864,146 C 979.2,111.6 1036.8,349 1152,320 C 1267.2,291 1382.4,64.8 1440,1L1440 560L0 560z" fill="#2E8B57"></path>
      
      <path d="M 0,541 C 96,477.8 288,257 480,225 C 672,193 768,411.8 960,381 C 1152,350.2 1344,133 1440,71L1440 560L0 560z" fill="#3CB371"></path>
  </g>
  
  <defs>
    <mask id="SvgjsMask2010">
      <rect width="1440" height="560" fill="#ffffff"></rect>
    </mask>
    
    <linearGradient 
      x1="50%" 
      y1="0%" 
      x2="50%" 
      y2="100%" 
      gradientUnits="userSpaceOnUse" 
      id="SvgjsLinearGradient2011"
    >
      <stop stop-color="#0e2a47" offset="0"></stop>
      <stop stop-color="rgba(4, 0, 158, 1)" offset="1"></stop>
    </linearGradient>
  </defs>
</svg>